# xmcd
#
# Track frame offsets: 
#        150
#        11270
#        21277
#        31288
#        40886
#        52601
#        65707
#        76745
#        87318
#        99976
#        110371
#        121066
#        133291
#        143253
#        152698
#        163495
#        173187
#        184111
#        193681
#        204417
#        215752
#        225675
#        235864
#        247824
#        258407
#        268391
#        278553
#        291260
#        300648
#        310469
#        320159
#
# Disc length: 4408 seconds
#
# Revision: 0
# Processed by: cddbd v1.5.2PL0 Copyright (c) Steve Scherf et al.
# Submitted via: ExactAudioCopyFreeDBPlugin 1.0
#
DISCID=b411361f
DTITLE=Jean Shepard - The Melody Ranch Girl - (1952-1964) - CD3
DYEAR=1996
DGENRE=Country
TTITLE0=The Weak And The Strong
TTITLE1=You'd Better Go
TTITLE2=A Thief in The Night
TTITLE3=Memory
TTITLE4=I Love You Because
TTITLE5=You Win Again
TTITLE6=You Can't Break The Chains of Love
TTITLE7=Secret of Life
TTITLE8=Jealous Heart
TTITLE9=Sweet Temptation
TTITLE10=I'll Take The Blame
TTITLE11=I'll Never be Free
TTITLE12=I'll Hold You in my Heart
TTITLE13=I Hate Myself
TTITLE14=You're Telling me Sweet Lies Again
TTITLE15=He's my Baby
TTITLE16=Just Another Girl
TTITLE17=Jeopardy
TTITLE18=Are You Certain?
TTITLE19=Better Love Next Time
TTITLE20=Have Heart, Will Love
TTITLE21=Heartaches, Teardrops And Sorrow
TTITLE22=I Didn't Mean to Make You Cry
TTITLE23=Sweetheart Don't Come Back
TTITLE24=How do I Tell it to a Child
TTITLE25=The One You Slip Around With
TTITLE26=The Mysteries of Life
TTITLE27=Did I Turn Down a Better Deal
TTITLE28=The Root of All Evil (is a Man)
TTITLE29=I'd Like to Know (Where People Go)
TTITLE30=Lonely Little World
EXTD=
EXTT0=
EXTT1=
EXTT2=
EXTT3=
EXTT4=
EXTT5=
EXTT6=
EXTT7=
EXTT8=
EXTT9=
EXTT10=
EXTT11=
EXTT12=
EXTT13=
EXTT14=
EXTT15=
EXTT16=
EXTT17=
EXTT18=
EXTT19=
EXTT20=
EXTT21=
EXTT22=
EXTT23=
EXTT24=
EXTT25=
EXTT26=
EXTT27=
EXTT28=
EXTT29=
EXTT30=
PLAYORDER=
